<svg xmlns="http://www.w3.org/2000/svg" width="1280" height="720" viewBox="0 0 1280 720" role="img" aria-label="Human Motion Capture demo preview">
  <defs>
    <radialGradient id="bg" cx="30%" cy="10%" r="80%">
      <stop offset="0" stop-color="#202629"/>
      <stop offset="0.48" stop-color="#111315"/>
      <stop offset="1" stop-color="#090b0c"/>
    </radialGradient>
  </defs>
  <rect width="1280" height="720" fill="url(#bg)"/>
  <g opacity="0.45" stroke="#3b4146" stroke-width="1">
    <path d="M0 560H1280"/>
    <path d="M120 720L520 440M320 720L650 440M520 720L780 440M760 720L920 440M1010 720L1050 440"/>
    <path d="M230 440H1060"/>
  </g>
  <g transform="translate(610 166)" stroke-linecap="round" stroke-linejoin="round">
    <line x1="-70" y1="70" x2="70" y2="70" stroke="#e9dfca" stroke-width="8"/>
    <line x1="-70" y1="70" x2="-56" y2="220" stroke="#e9dfca" stroke-width="8"/>
    <line x1="70" y1="70" x2="56" y2="220" stroke="#e9dfca" stroke-width="8"/>
    <line x1="-56" y1="220" x2="56" y2="220" stroke="#e9dfca" stroke-width="8"/>
    <line x1="-70" y1="70" x2="-150" y2="15" stroke="#50d2c2" stroke-width="8"/>
    <line x1="-150" y1="15" x2="-190" y2="-55" stroke="#50d2c2" stroke-width="8"/>
    <line x1="70" y1="70" x2="150" y2="15" stroke="#ff8068" stroke-width="8"/>
    <line x1="150" y1="15" x2="190" y2="-55" stroke="#ff8068" stroke-width="8"/>
    <line x1="-56" y1="220" x2="-74" y2="350" stroke="#8bd45f" stroke-width="8"/>
    <line x1="-74" y1="350" x2="-82" y2="480" stroke="#8bd45f" stroke-width="8"/>
    <line x1="56" y1="220" x2="74" y2="350" stroke="#f4bd4f" stroke-width="8"/>
    <line x1="74" y1="350" x2="82" y2="480" stroke="#f4bd4f" stroke-width="8"/>
    <line x1="0" y1="0" x2="-70" y2="70" stroke="#94988e" stroke-width="6"/>
    <line x1="0" y1="0" x2="70" y2="70" stroke="#94988e" stroke-width="6"/>
    <g fill="#f4bd4f" stroke="#111315" stroke-width="5">
      <circle cx="0" cy="0" r="16"/>
      <circle cx="-70" cy="70" r="14"/>
      <circle cx="70" cy="70" r="14"/>
      <circle cx="-150" cy="15" r="13"/>
      <circle cx="150" cy="15" r="13"/>
      <circle cx="-190" cy="-55" r="13"/>
      <circle cx="190" cy="-55" r="13"/>
      <circle cx="-56" cy="220" r="14"/>
      <circle cx="56" cy="220" r="14"/>
      <circle cx="-74" cy="350" r="13"/>
      <circle cx="74" cy="350" r="13"/>
      <circle cx="-82" cy="480" r="13"/>
      <circle cx="82" cy="480" r="13"/>
    </g>
  </g>
  <rect x="24" y="24" width="340" height="190" rx="8" fill="rgba(20,22,24,0.86)" stroke="rgba(255,255,255,0.16)"/>
  <text x="48" y="68" fill="#f3efe4" font-family="Space Grotesk, Arial" font-size="26" font-weight="700">Human Motion Capture</text>
  <circle cx="54" cy="100" r="6" fill="#8bd45f"/>
  <text x="70" y="106" fill="#a4aaa2" font-family="IBM Plex Mono, Consolas" font-size="15">Connected</text>
  <text x="48" y="150" fill="#50d2c2" font-family="IBM Plex Mono, Consolas" font-size="18">Gesture: BOTH_HANDS_UP</text>
  <text x="48" y="180" fill="#f4bd4f" font-family="IBM Plex Mono, Consolas" font-size="18">FPS: 29.8 | Confidence: 0.91</text>
  <rect x="936" y="70" width="300" height="420" rx="8" fill="rgba(20,22,24,0.86)" stroke="rgba(255,255,255,0.16)"/>
  <text x="960" y="112" fill="#f4bd4f" font-family="Space Grotesk, Arial" font-size="18" font-weight="700">Joint Angles</text>
  <text x="960" y="154" fill="#a4aaa2" font-family="IBM Plex Mono, Consolas" font-size="16">LEFT_ELBOW</text>
  <text x="1150" y="154" fill="#50d2c2" font-family="IBM Plex Mono, Consolas" font-size="16" text-anchor="end">167.4</text>
  <text x="960" y="194" fill="#a4aaa2" font-family="IBM Plex Mono, Consolas" font-size="16">RIGHT_ELBOW</text>
  <text x="1150" y="194" fill="#50d2c2" font-family="IBM Plex Mono, Consolas" font-size="16" text-anchor="end">165.8</text>
  <text x="960" y="234" fill="#a4aaa2" font-family="IBM Plex Mono, Consolas" font-size="16">LEFT_KNEE</text>
  <text x="1150" y="234" fill="#50d2c2" font-family="IBM Plex Mono, Consolas" font-size="16" text-anchor="end">176.0</text>
  <text x="960" y="304" fill="#f4bd4f" font-family="Space Grotesk, Arial" font-size="18" font-weight="700">Kinematics</text>
  <text x="960" y="346" fill="#a4aaa2" font-family="IBM Plex Mono, Consolas" font-size="16">IK Solver</text>
  <text x="1150" y="346" fill="#50d2c2" font-family="IBM Plex Mono, Consolas" font-size="16" text-anchor="end">FABRIK</text>
</svg>
